<svg xmlns="http://www.w3.org/2000/svg" viewBox="0 0 16 16"><defs><style>.cls-1{opacity:0;}.cls-2{fill:#f6f6f6;}.dark-gray{fill:#191919;}.white{fill:#fff;}</style></defs><g id="canvas" class="cls-1"><path class="cls-2" d="M16,16H0V0H16Z"/><path class="dark-gray" d="M16,16H0V0H16Z"/></g><g id="iconBg"><path class="white" d="M4.688,9.755a2.954,2.954,0,0,1,1.681.673l.027.019.032-.007a3.906,3.906,0,0,0,1.039-.368l.11-.057-.331-.228A4.711,4.711,0,0,0,4.7,8.74H.51a.508.508,0,1,0,0,1.015H4.688Zm2.535.111ZM0,6.913a.5.5,0,0,1,.51-.508H4.686a2.968,2.968,0,0,0,1.647-.672l.029-.021a4.714,4.714,0,0,1,1.083.34l.121.054-.4.286h0A4.381,4.381,0,0,1,4.686,7.42H.51A.5.5,0,0,1,0,6.913Zm13.7.561a3.885,3.885,0,0,1-1.585,3.645h0a3.877,3.877,0,0,1-2.237.684A4.545,4.545,0,0,1,8.7,11.629l-.171-.046,1.222-.794h.126a2.877,2.877,0,0,0,2.1-.885l0,0h0l.042-.058.007-.008A2.733,2.733,0,0,0,12.67,8.6l.016-.1a2.888,2.888,0,0,0,0-.937l-.016-.1a2.849,2.849,0,0,0-.621-1.252l0,0h0L12,6.144a2.836,2.836,0,0,0-2.115-.933H9.639L8.453,4.438l.163-.049h0A4.322,4.322,0,0,1,9.864,4.2a3.93,3.93,0,0,1,1.9.491h0A3.8,3.8,0,0,1,13.7,7.474Zm.162-1.006-.048-.109H15.49a.507.507,0,1,1,0,1.014H14.131l-.012-.064A3.736,3.736,0,0,0,13.866,6.468ZM16,9.167a.5.5,0,0,1-.51.507H13.748l.049-.109a3.736,3.736,0,0,0,.253-.841l.012-.064H15.49A.5.5,0,0,1,16,9.167ZM4.248,5.914H2.892a3.947,3.947,0,0,1,2.52-1.648h0a3.892,3.892,0,0,1,1.935.122h0a7.668,7.668,0,0,1,1.936,1.04l0,0h0a3.466,3.466,0,0,0,2.442.929l.023.029-.061.049h0l.061-.049a2.358,2.358,0,0,1,.464.887l.026.1A4.717,4.717,0,0,1,8.751,6.291s-.541-.369-.706-.458h0A3.788,3.788,0,0,0,6.652,5.26h0A2.9,2.9,0,0,0,4.248,5.914Zm5.038,4.658a7.685,7.685,0,0,1-1.936,1.04h0a3.892,3.892,0,0,1-1.935.122h0a3.947,3.947,0,0,1-2.52-1.648H4.248a2.9,2.9,0,0,0,2.4.655h0a3.788,3.788,0,0,0,1.393-.573h0c.165-.088.706-.457.706-.457a4.722,4.722,0,0,1,3.493-1.083l-.026.1a2.355,2.355,0,0,1-.464.888l-.023.029a3.461,3.461,0,0,0-2.442.929h0Zm-7-2.3a3.608,3.608,0,0,1,0-.52h1.01a3.011,3.011,0,0,0,0,.52Z"/></g></svg>